SplineFontDB: 3.2
FontName: AurebeshRed-Bold
FullName: Aurebesh Red Bold
FamilyName: Aurebesh Red
Weight: Bold
Copyright: CC-0 public domain
Version: 1.0
ItalicAngle: 0
UnderlinePosition: 55
UnderlineWidth: 37
Ascent: 872
Descent: 128
InvalidEm: 0
sfntRevision: 0x00010000
LayerCount: 2
Layer: 0 1 "Back" 1
Layer: 1 1 "Fore" 0
XUID: [1021 764 -1482030943 20306]
StyleMap: 0x0040
FSType: 4
OS2Version: 2
OS2_WeightWidthSlopeOnly: 0
OS2_UseTypoMetrics: 0
CreationTime: 1595014984
ModificationTime: 1595016241
PfmFamily: 81
TTFWeight: 400
TTFWidth: 5
LineGap: 0
VLineGap: 0
Panose: 0 0 4 0 0 0 0 0 0 0
OS2TypoAscent: 747
OS2TypoAOffset: 0
OS2TypoDescent: 0
OS2TypoDOffset: 0
OS2TypoLinegap: 0
OS2WinAscent: 996
OS2WinAOffset: 0
OS2WinDescent: 249
OS2WinDOffset: 0
HheadAscent: 996
HheadAOffset: 0
HheadDescent: -249
HheadDOffset: 0
OS2SubXSize: 374
OS2SubYSize: 374
OS2SubXOff: 0
OS2SubYOff: 0
OS2SupXSize: 374
OS2SupYSize: 374
OS2SupXOff: 0
OS2SupYOff: 374
OS2StrikeYSize: 37
OS2StrikeYPos: 149
OS2CapHeight: 872
OS2XHeight: 623
OS2Vendor: 'FSTR'
OS2CodePages: 00000001.00000000
OS2UnicodeRanges: 80000001.00000000.00000000.00000000
MarkAttachClasses: 1
DEI: 91125
ShortTable: maxp 16
  1
  0
  102
  54
  6
  0
  0
  2
  0
  0
  0
  0
  0
  0
  0
  0
EndShort
LangName: 1033 "" "" "" "" "" "Version 1.0" "" "" "" "AurekFonts" "" "" "https://AurekFonts.github.io" "Creative Commons CC0 Public Domain Dedication" "http://creativecommons.org/publicdomain/zero/1.0/"
Encoding: UnicodeBmp
UnicodeInterp: none
NameList: AGL For New Fonts
DisplaySize: -72
AntiAlias: 1
FitToEm: 0
WinInfo: 0 25 10
BeginPrivate: 0
EndPrivate
BeginChars: 65539 100

StartChar: .notdef
Encoding: 65536 -1 0
Width: 847
VWidth: 747
Flags: W
LayerCount: 2
Fore
SplineSet
0 0 m 1,0,-1
 0 124 l 1,1,-1
 747 124 l 1,2,-1
 747 0 l 1,3,-1
 0 0 l 1,0,-1
0 170 m 1,4,-1
 0 294 l 1,5,-1
 747 294 l 1,6,-1
 747 170 l 1,7,-1
 0 170 l 1,4,-1
0 340 m 1,8,-1
 0 464 l 1,9,-1
 747 464 l 1,10,-1
 747 340 l 1,11,-1
 0 340 l 1,8,-1
0 510 m 1,12,-1
 0 634 l 1,13,-1
 747 634 l 1,14,-1
 747 510 l 1,15,-1
 0 510 l 1,12,-1
0 680 m 1,16,-1
 0 804 l 1,17,-1
 747 804 l 1,18,-1
 747 680 l 1,19,-1
 0 680 l 1,16,-1
EndSplineSet
EndChar

StartChar: exclam
Encoding: 33 33 2
Width: 847
VWidth: 747
Flags: W
LayerCount: 2
Fore
SplineSet
124 436 m 1,0,-1
 124 561 l 1,1,-1
 374 561 l 2,2,3
 425 561 425 561 461 597 c 0,4,5
 498 633 498 633 498 685 c 1,6,-1
 623 685 l 1,7,8
 623 582 623 582 550 509 c 128,-1,9
 477 436 477 436 374 436 c 2,10,-1
 124 436 l 1,0,-1
124 187 m 1,11,-1
 124 311 l 1,12,-1
 374 311 l 2,13,14
 425 311 425 311 461 348 c 0,15,16
 498 384 498 384 498 436 c 1,17,-1
 623 436 l 1,18,19
 623 333 623 333 550 260 c 128,-1,20
 477 187 477 187 374 187 c 2,21,-1
 124 187 l 1,11,-1
EndSplineSet
EndChar

StartChar: quotedbl
Encoding: 34 34 3
Width: 847
VWidth: 747
Flags: W
LayerCount: 2
Fore
SplineSet
436 498 m 2,0,1
 333 498 333 498 260 571 c 128,-1,2
 187 644 187 644 187 747 c 2,3,-1
 187 872 l 1,4,-1
 311 872 l 1,5,-1
 311 747 l 2,6,7
 311 695 311 695 348 659 c 0,8,9
 384 622 384 622 436 623 c 1,10,-1
 436 872 l 1,11,-1
 561 872 l 1,12,-1
 561 498 l 1,13,-1
 436 498 l 2,0,1
EndSplineSet
EndChar

StartChar: numbersign
Encoding: 35 35 4
Width: 847
VWidth: 747
Flags: W
LayerCount: 2
Fore
SplineSet
0 0 m 1,0,-1
 0 124 l 1,1,-1
 124 124 l 1,2,-1
 124 249 l 2,3,4
 124 352 124 352 197 425 c 0,5,6
 221 449 221 449 249 465 c 1,7,-1
 249 498 l 1,8,-1
 0 498 l 1,9,-1
 0 623 l 1,10,-1
 747 623 l 1,11,-1
 747 498 l 1,12,-1
 623 498 l 1,13,-1
 623 311 l 1,14,15
 572 311 572 311 535 274 c 0,16,17
 499 238 499 238 498 187 c 2,18,-1
 498 124 l 1,19,-1
 747 124 l 1,20,-1
 747 0 l 1,21,-1
 0 0 l 1,0,-1
374 124 m 1,22,-1
 374 187 l 2,23,24
 374 290 374 290 447 363 c 0,25,26
 471 387 471 387 498 403 c 1,27,-1
 498 498 l 1,28,-1
 374 498 l 1,29,-1
 374 374 l 1,30,31
 322 374 322 374 286 337 c 0,32,33
 249 301 249 301 249 249 c 2,34,-1
 249 124 l 1,35,-1
 374 124 l 1,22,-1
EndSplineSet
EndChar

StartChar: dollar
Encoding: 36 36 5
Width: 847
VWidth: 747
Flags: W
LayerCount: 2
Fore
SplineSet
374 0 m 1,0,-1
 374 374 l 1,1,-1
 498 374 l 2,2,3
 549 374 549 374 586 410 c 0,4,5
 622 446 622 446 623 498 c 2,6,-1
 623 623 l 1,7,-1
 498 623 l 1,8,-1
 498 498 l 1,9,-1
 374 498 l 1,10,-1
 374 623 l 1,11,-1
 249 623 l 1,12,-1
 249 498 l 1,13,-1
 124 498 l 1,14,-1
 124 623 l 1,15,-1
 0 623 l 1,16,-1
 0 747 l 1,17,-1
 124 747 l 1,18,-1
 124 872 l 1,19,-1
 249 872 l 1,20,-1
 249 747 l 1,21,-1
 374 747 l 1,22,-1
 374 872 l 1,23,-1
 498 872 l 1,24,-1
 498 747 l 1,25,-1
 747 747 l 1,26,-1
 747 498 l 2,27,28
 747 395 747 395 674 322 c 128,-1,29
 601 249 601 249 498 249 c 1,30,-1
 498 0 l 1,31,-1
 374 0 l 1,0,-1
EndSplineSet
EndChar

StartChar: percent
Encoding: 37 37 6
Width: 847
VWidth: 747
Flags: W
LayerCount: 2
Fore
SplineSet
498 498 m 1,0,-1
 498 623 l 1,1,2
 549 623 549 623 586 659 c 0,3,4
 622 695 622 695 623 747 c 2,5,-1
 623 872 l 1,6,-1
 747 872 l 1,7,-1
 747 747 l 2,8,9
 747 644 747 644 674 571 c 128,-1,10
 601 498 601 498 498 498 c 1,0,-1
0 498 m 1,11,-1
 0 872 l 1,12,-1
 374 872 l 1,13,-1
 374 747 l 2,14,15
 374 644 374 644 300 571 c 0,16,17
 227 498 227 498 124 498 c 2,18,-1
 0 498 l 1,11,-1
124 623 m 1,19,20
 175 623 175 623 212 659 c 0,21,22
 248 695 248 695 249 747 c 1,23,-1
 124 747 l 1,24,-1
 124 623 l 1,19,20
374 0 m 1,25,-1
 374 124 l 2,26,27
 374 227 374 227 447 300 c 128,-1,28
 520 373 520 373 623 374 c 2,29,-1
 747 374 l 1,30,-1
 747 0 l 1,31,-1
 374 0 l 1,25,-1
0 0 m 1,32,-1
 0 124 l 2,33,34
 0 227 0 227 73 300 c 128,-1,35
 146 373 146 373 249 374 c 1,36,-1
 249 249 l 1,37,38
 198 249 198 249 161 212 c 0,39,40
 125 176 125 176 124 124 c 2,41,-1
 124 0 l 1,42,-1
 0 0 l 1,32,-1
623 124 m 1,43,-1
 623 249 l 1,44,45
 572 249 572 249 535 212 c 0,46,47
 499 176 499 176 498 124 c 1,48,-1
 623 124 l 1,43,-1
EndSplineSet
EndChar

StartChar: ampersand
Encoding: 38 38 7
Width: 847
VWidth: 747
Flags: W
LayerCount: 2
Fore
SplineSet
249 0 m 2,0,1
 146 0 146 0 73 73 c 128,-1,2
 0 146 0 146 0 249 c 1,3,-1
 124 249 l 1,4,5
 124 198 124 198 161 161 c 0,6,7
 197 125 197 125 249 124 c 2,8,-1
 623 124 l 1,9,-1
 623 249 l 1,10,-1
 249 249 l 1,11,-1
 249 374 l 1,12,-1
 623 374 l 1,13,-1
 623 498 l 1,14,-1
 249 498 l 2,15,16
 198 498 198 498 161 461 c 0,17,18
 125 425 125 425 124 374 c 1,19,-1
 0 374 l 1,20,21
 0 477 0 477 73 550 c 128,-1,22
 146 623 146 623 249 623 c 2,23,-1
 747 623 l 1,24,-1
 747 0 l 1,25,-1
 249 0 l 2,0,1
EndSplineSet
EndChar

StartChar: quotesingle
Encoding: 39 39 8
Width: 847
VWidth: 747
Flags: W
LayerCount: 2
Fore
SplineSet
249 498 m 1,0,-1
 249 872 l 1,1,-1
 498 872 l 1,2,-1
 498 747 l 1,3,-1
 374 747 l 1,4,-1
 374 498 l 1,5,-1
 249 498 l 1,0,-1
EndSplineSet
EndChar

StartChar: parenleft
Encoding: 40 40 9
Width: 847
VWidth: 747
Flags: W
LayerCount: 2
Fore
SplineSet
374 0 m 1,0,-1
 374 374 l 1,1,-1
 249 374 l 1,2,-1
 249 498 l 1,3,-1
 374 498 l 1,4,-1
 374 872 l 1,5,-1
 498 872 l 1,6,-1
 498 0 l 1,7,-1
 374 0 l 1,0,-1
EndSplineSet
EndChar

StartChar: parenright
Encoding: 41 41 10
Width: 847
VWidth: 747
Flags: W
LayerCount: 2
Fore
SplineSet
249 0 m 1,0,-1
 249 872 l 1,1,-1
 374 872 l 1,2,-1
 374 498 l 1,3,-1
 498 498 l 1,4,-1
 498 374 l 1,5,-1
 374 374 l 1,6,-1
 374 0 l 1,7,-1
 249 0 l 1,0,-1
EndSplineSet
EndChar

StartChar: asterisk
Encoding: 42 42 11
Width: 847
VWidth: 747
Flags: W
LayerCount: 2
Fore
SplineSet
311 374 m 1,0,-1
 311 561 l 1,1,-1
 187 561 l 1,2,-1
 187 436 l 1,3,-1
 62 436 l 1,4,-1
 62 809 l 1,5,-1
 187 809 l 1,6,-1
 187 685 l 1,7,-1
 311 685 l 1,8,-1
 311 872 l 1,9,-1
 436 872 l 1,10,-1
 436 685 l 1,11,-1
 561 685 l 1,12,-1
 561 809 l 1,13,-1
 685 809 l 1,14,-1
 685 436 l 1,15,-1
 561 436 l 1,16,-1
 561 561 l 1,17,-1
 436 561 l 1,18,-1
 436 374 l 1,19,-1
 311 374 l 1,0,-1
EndSplineSet
EndChar

StartChar: plus
Encoding: 43 43 12
Width: 847
VWidth: 747
Flags: W
LayerCount: 2
Fore
SplineSet
311 374 m 1,0,-1
 311 561 l 1,1,-1
 124 561 l 1,2,-1
 124 685 l 1,3,-1
 623 685 l 1,4,-1
 623 561 l 1,5,-1
 436 561 l 1,6,-1
 436 374 l 1,7,-1
 311 374 l 1,0,-1
EndSplineSet
EndChar

StartChar: comma
Encoding: 44 44 13
Width: 847
VWidth: 747
Flags: W
LayerCount: 2
Fore
SplineSet
311 0 m 1,0,-1
 311 249 l 1,1,-1
 436 249 l 1,2,-1
 436 0 l 1,3,-1
 311 0 l 1,0,-1
EndSplineSet
EndChar

StartChar: hyphen
Encoding: 45 45 14
Width: 847
VWidth: 747
Flags: W
LayerCount: 2
Fore
SplineSet
124 561 m 1,0,-1
 124 685 l 1,1,-1
 623 685 l 1,2,-1
 623 561 l 1,3,-1
 124 561 l 1,0,-1
EndSplineSet
EndChar

StartChar: period
Encoding: 46 46 15
Width: 847
VWidth: 747
Flags: W
LayerCount: 2
Fore
SplineSet
436 0 m 1,0,-1
 436 249 l 1,1,-1
 561 249 l 1,2,-1
 561 0 l 1,3,-1
 436 0 l 1,0,-1
187 0 m 1,4,-1
 187 249 l 1,5,-1
 311 249 l 1,6,-1
 311 0 l 1,7,-1
 187 0 l 1,4,-1
EndSplineSet
EndChar

StartChar: slash
Encoding: 47 47 16
Width: 847
VWidth: 747
Flags: W
LayerCount: 2
Fore
SplineSet
124 0 m 1,0,-1
 124 249 l 2,1,2
 124 352 124 352 197 425 c 128,-1,3
 270 498 270 498 374 498 c 0,4,5
 425 498 425 498 461 535 c 0,6,7
 498 571 498 571 498 623 c 2,8,-1
 498 872 l 1,9,-1
 623 872 l 1,10,-1
 623 623 l 2,11,12
 623 520 623 520 550 447 c 128,-1,13
 477 374 477 374 374 374 c 0,14,15
 322 374 322 374 286 337 c 0,16,17
 249 301 249 301 249 249 c 2,18,-1
 249 0 l 1,19,-1
 124 0 l 1,0,-1
EndSplineSet
EndChar

StartChar: zero
Encoding: 48 48 17
Width: 847
VWidth: 747
Flags: W
LayerCount: 2
Fore
SplineSet
0 0 m 1,0,-1
 0 623 l 1,1,-1
 747 623 l 1,2,-1
 747 0 l 1,3,-1
 0 0 l 1,0,-1
623 124 m 1,4,-1
 623 498 l 1,5,-1
 124 498 l 1,6,-1
 124 124 l 1,7,-1
 623 124 l 1,4,-1
249 249 m 1,8,-1
 249 374 l 1,9,-1
 498 374 l 1,10,-1
 498 249 l 1,11,-1
 249 249 l 1,8,-1
EndSplineSet
EndChar

StartChar: one
Encoding: 49 49 18
Width: 847
VWidth: 747
Flags: W
LayerCount: 2
Fore
SplineSet
0 0 m 1,0,-1
 0 124 l 1,1,-1
 374 124 l 1,2,-1
 374 498 l 1,3,-1
 0 498 l 1,4,-1
 0 623 l 1,5,-1
 498 623 l 1,6,-1
 498 124 l 1,7,-1
 747 124 l 1,8,-1
 747 0 l 1,9,-1
 0 0 l 1,0,-1
EndSplineSet
EndChar

StartChar: two
Encoding: 50 50 19
Width: 847
VWidth: 747
Flags: W
LayerCount: 2
Fore
SplineSet
0 249 m 1,0,-1
 0 374 l 1,1,-1
 623 374 l 1,2,-1
 623 498 l 1,3,-1
 0 498 l 1,4,-1
 0 623 l 1,5,-1
 747 623 l 1,6,-1
 747 249 l 1,7,-1
 0 249 l 1,0,-1
0 0 m 1,8,-1
 0 124 l 1,9,-1
 747 124 l 1,10,-1
 747 0 l 1,11,-1
 0 0 l 1,8,-1
EndSplineSet
EndChar

StartChar: three
Encoding: 51 51 20
Width: 847
VWidth: 747
Flags: W
LayerCount: 2
Fore
SplineSet
0 0 m 1,0,-1
 0 124 l 1,1,-1
 623 124 l 1,2,-1
 623 498 l 1,3,-1
 0 498 l 1,4,-1
 0 623 l 1,5,-1
 747 623 l 1,6,-1
 747 0 l 1,7,-1
 0 0 l 1,0,-1
0 249 m 1,8,-1
 0 374 l 1,9,-1
 498 374 l 1,10,-1
 498 249 l 1,11,-1
 0 249 l 1,8,-1
EndSplineSet
EndChar

StartChar: four
Encoding: 52 52 21
Width: 847
VWidth: 747
Flags: W
LayerCount: 2
Fore
SplineSet
623 0 m 1,0,-1
 623 249 l 1,1,-1
 0 249 l 1,2,-1
 0 623 l 1,3,-1
 124 623 l 1,4,-1
 124 374 l 1,5,-1
 623 374 l 1,6,-1
 623 623 l 1,7,-1
 747 623 l 1,8,-1
 747 0 l 1,9,-1
 623 0 l 1,0,-1
EndSplineSet
EndChar

StartChar: five
Encoding: 53 53 22
Width: 847
VWidth: 747
Flags: W
LayerCount: 2
Fore
SplineSet
0 498 m 1,0,-1
 0 623 l 1,1,-1
 747 623 l 1,2,-1
 747 498 l 1,3,-1
 0 498 l 1,0,-1
0 0 m 1,4,-1
 0 124 l 1,5,-1
 623 124 l 1,6,-1
 623 249 l 1,7,-1
 0 249 l 1,8,-1
 0 374 l 1,9,-1
 747 374 l 1,10,-1
 747 0 l 1,11,-1
 0 0 l 1,4,-1
EndSplineSet
EndChar

StartChar: six
Encoding: 54 54 23
Width: 847
VWidth: 747
Flags: W
LayerCount: 2
Fore
SplineSet
0 498 m 1,0,-1
 0 623 l 1,1,-1
 747 623 l 1,2,-1
 747 498 l 1,3,-1
 0 498 l 1,0,-1
0 0 m 1,4,-1
 0 374 l 1,5,-1
 747 374 l 1,6,-1
 747 0 l 1,7,-1
 0 0 l 1,4,-1
623 124 m 1,8,-1
 623 249 l 1,9,-1
 124 249 l 1,10,-1
 124 124 l 1,11,-1
 623 124 l 1,8,-1
EndSplineSet
EndChar

StartChar: seven
Encoding: 55 55 24
Width: 847
VWidth: 747
Flags: W
LayerCount: 2
Fore
SplineSet
623 0 m 1,0,-1
 623 498 l 1,1,-1
 0 498 l 1,2,-1
 0 623 l 1,3,-1
 747 623 l 1,4,-1
 747 0 l 1,5,-1
 623 0 l 1,0,-1
EndSplineSet
EndChar

StartChar: eight
Encoding: 56 56 25
Width: 847
VWidth: 747
Flags: W
LayerCount: 2
Fore
SplineSet
0 0 m 1,0,-1
 0 623 l 1,1,-1
 747 623 l 1,2,-1
 747 0 l 1,3,-1
 0 0 l 1,0,-1
623 374 m 1,4,-1
 623 498 l 1,5,-1
 124 498 l 1,6,-1
 124 374 l 1,7,-1
 623 374 l 1,4,-1
623 124 m 1,8,-1
 623 249 l 1,9,-1
 124 249 l 1,10,-1
 124 124 l 1,11,-1
 623 124 l 1,8,-1
EndSplineSet
EndChar

StartChar: nine
Encoding: 57 57 26
Width: 847
VWidth: 747
Flags: W
LayerCount: 2
Fore
SplineSet
0 249 m 1,0,-1
 0 623 l 1,1,-1
 747 623 l 1,2,-1
 747 249 l 1,3,-1
 0 249 l 1,0,-1
623 374 m 1,4,-1
 623 498 l 1,5,-1
 124 498 l 1,6,-1
 124 374 l 1,7,-1
 623 374 l 1,4,-1
0 0 m 1,8,-1
 0 124 l 1,9,-1
 747 124 l 1,10,-1
 747 0 l 1,11,-1
 0 0 l 1,8,-1
EndSplineSet
EndChar

StartChar: colon
Encoding: 58 58 27
Width: 847
VWidth: 747
Flags: W
LayerCount: 2
Fore
SplineSet
187 0 m 1,0,-1
 187 124 l 1,1,-1
 436 124 l 1,2,-1
 436 374 l 2,3,4
 436 425 436 425 399 461 c 0,5,6
 363 498 363 498 311 498 c 2,7,-1
 187 498 l 1,8,-1
 187 623 l 1,9,-1
 311 623 l 2,10,11
 414 623 414 623 487 550 c 128,-1,12
 560 477 560 477 561 374 c 2,13,-1
 561 0 l 1,14,-1
 187 0 l 1,0,-1
EndSplineSet
EndChar

StartChar: semicolon
Encoding: 59 59 28
Width: 847
VWidth: 747
Flags: W
LayerCount: 2
Fore
SplineSet
311 0 m 1,0,-1
 311 872 l 1,1,-1
 436 872 l 1,2,-1
 436 0 l 1,3,-1
 311 0 l 1,0,-1
EndSplineSet
EndChar

StartChar: less
Encoding: 60 60 29
Width: 847
VWidth: 747
Flags: W
LayerCount: 2
Fore
SplineSet
436 249 m 1,0,-1
 436 374 l 1,1,-1
 187 374 l 1,2,-1
 187 498 l 1,3,-1
 436 498 l 1,4,-1
 436 623 l 1,5,-1
 561 623 l 1,6,-1
 561 249 l 1,7,-1
 436 249 l 1,0,-1
EndSplineSet
EndChar

StartChar: equal
Encoding: 61 61 30
Width: 847
VWidth: 747
Flags: W
LayerCount: 2
Fore
SplineSet
436 436 m 1,0,-1
 436 685 l 1,1,-1
 561 685 l 1,2,-1
 561 436 l 1,3,-1
 436 436 l 1,0,-1
187 436 m 1,4,-1
 187 685 l 1,5,-1
 311 685 l 1,6,-1
 311 436 l 1,7,-1
 187 436 l 1,4,-1
EndSplineSet
EndChar

StartChar: greater
Encoding: 62 62 31
Width: 847
VWidth: 747
Flags: W
LayerCount: 2
Fore
SplineSet
187 249 m 1,0,-1
 187 623 l 1,1,-1
 311 623 l 1,2,-1
 311 498 l 1,3,-1
 561 498 l 1,4,-1
 561 374 l 1,5,-1
 311 374 l 1,6,-1
 311 249 l 1,7,-1
 187 249 l 1,0,-1
EndSplineSet
EndChar

StartChar: question
Encoding: 63 63 32
Width: 847
VWidth: 747
Flags: W
LayerCount: 2
Fore
SplineSet
374 0 m 1,0,-1
 374 124 l 1,1,2
 425 124 425 124 461 161 c 0,3,4
 498 197 498 197 498 249 c 2,5,-1
 498 623 l 2,6,7
 498 674 498 674 461 711 c 0,8,9
 425 748 425 748 374 747 c 2,10,-1
 249 747 l 1,11,-1
 249 623 l 1,12,-1
 124 623 l 1,13,-1
 124 872 l 1,14,-1
 374 872 l 2,15,16
 477 872 477 872 550 799 c 128,-1,17
 623 726 623 726 623 623 c 2,18,-1
 623 249 l 2,19,20
 623 146 623 146 550 73 c 128,-1,21
 477 0 477 0 374 0 c 1,0,-1
EndSplineSet
EndChar

StartChar: at
Encoding: 64 64 33
Width: 847
VWidth: 747
Flags: W
LayerCount: 2
Fore
SplineSet
249 0 m 1,0,-1
 249 124 l 1,1,-1
 498 124 l 2,2,3
 549 124 549 124 586 161 c 0,4,5
 622 197 622 197 623 249 c 2,6,-1
 623 374 l 2,7,8
 623 425 623 425 586 461 c 0,9,10
 550 498 550 498 498 498 c 2,11,-1
 249 498 l 1,12,-1
 249 623 l 1,13,-1
 498 623 l 2,14,15
 601 623 601 623 674 550 c 128,-1,16
 747 477 747 477 747 374 c 2,17,-1
 747 249 l 2,18,19
 747 146 747 146 674 73 c 128,-1,20
 601 0 601 0 498 0 c 2,21,-1
 249 0 l 1,0,-1
0 0 m 1,22,-1
 0 623 l 1,23,-1
 124 623 l 1,24,-1
 124 374 l 1,25,-1
 498 374 l 1,26,-1
 498 249 l 1,27,-1
 124 249 l 1,28,-1
 124 0 l 1,29,-1
 0 0 l 1,22,-1
EndSplineSet
EndChar

StartChar: A
Encoding: 65 65 34
Width: 847
VWidth: 747
Flags: W
LayerCount: 2
Fore
SplineSet
0 498 m 1,0,-1
 0 872 l 1,1,-1
 124 872 l 1,2,-1
 124 623 l 1,3,-1
 498 623 l 2,4,5
 549 623 549 623 586 659 c 0,6,7
 622 695 622 695 623 747 c 2,8,-1
 623 872 l 1,9,-1
 747 872 l 1,10,-1
 747 747 l 2,11,12
 747 644 747 644 674 571 c 128,-1,13
 601 498 601 498 498 498 c 2,14,-1
 0 498 l 1,0,-1
0 0 m 1,15,-1
 0 374 l 1,16,-1
 498 374 l 2,17,18
 601 374 601 374 674 300 c 0,19,20
 747 227 747 227 747 124 c 2,21,-1
 747 0 l 1,22,-1
 623 0 l 1,23,-1
 623 124 l 2,24,25
 623 175 623 175 586 212 c 0,26,27
 550 248 550 248 498 249 c 2,28,-1
 124 249 l 1,29,-1
 124 0 l 1,30,-1
 0 0 l 1,15,-1
EndSplineSet
EndChar

StartChar: B
Encoding: 66 66 35
Width: 847
VWidth: 747
Flags: W
LayerCount: 2
Fore
SplineSet
0 498 m 1,0,-1
 0 623 l 2,1,2
 0 726 0 726 73 799 c 128,-1,3
 146 872 146 872 249 872 c 2,4,-1
 498 872 l 2,5,6
 601 872 601 872 674 799 c 128,-1,7
 747 726 747 726 747 623 c 2,8,-1
 747 498 l 1,9,-1
 623 498 l 1,10,-1
 623 623 l 2,11,12
 623 674 623 674 586 711 c 0,13,14
 550 748 550 748 498 747 c 2,15,-1
 249 747 l 2,16,17
 198 747 198 747 161 711 c 0,18,19
 125 675 125 675 124 623 c 2,20,-1
 124 498 l 1,21,-1
 0 498 l 1,0,-1
249 374 m 1,22,-1
 249 498 l 1,23,-1
 498 498 l 1,24,-1
 498 374 l 1,25,-1
 249 374 l 1,22,-1
249 0 m 2,26,27
 146 0 146 0 73 73 c 128,-1,28
 0 146 0 146 0 249 c 2,29,-1
 0 374 l 1,30,-1
 124 374 l 1,31,-1
 124 249 l 2,32,33
 124 198 124 198 161 161 c 0,34,35
 197 125 197 125 249 124 c 2,36,-1
 498 124 l 2,37,38
 549 124 549 124 586 161 c 0,39,40
 622 197 622 197 623 249 c 2,41,-1
 623 374 l 1,42,-1
 747 374 l 1,43,-1
 747 249 l 2,44,45
 747 146 747 146 674 73 c 128,-1,46
 601 0 601 0 498 0 c 2,47,-1
 249 0 l 2,26,27
EndSplineSet
EndChar

StartChar: C
Encoding: 67 67 36
Width: 847
VWidth: 747
Flags: W
LayerCount: 2
Fore
SplineSet
124 249 m 1,0,-1
 124 747 l 1,1,-1
 0 747 l 1,2,-1
 0 872 l 1,3,-1
 249 872 l 1,4,-1
 249 249 l 1,5,-1
 124 249 l 1,0,-1
623 0 m 1,6,-1
 623 623 l 1,7,-1
 747 623 l 1,8,-1
 747 0 l 1,9,-1
 623 0 l 1,6,-1
374 249 m 1,10,-1
 374 623 l 1,11,-1
 498 623 l 1,12,-1
 498 249 l 1,13,-1
 374 249 l 1,10,-1
EndSplineSet
EndChar

StartChar: D
Encoding: 68 68 37
Width: 847
VWidth: 747
Flags: W
LayerCount: 2
Fore
SplineSet
374 0 m 1,0,-1
 374 374 l 1,1,-1
 124 374 l 1,2,-1
 124 498 l 1,3,-1
 498 498 l 2,4,5
 549 498 549 498 586 535 c 0,6,7
 622 571 622 571 623 623 c 2,8,-1
 623 747 l 1,9,-1
 0 747 l 1,10,-1
 0 872 l 1,11,-1
 747 872 l 1,12,-1
 747 623 l 2,13,14
 747 520 747 520 674 447 c 128,-1,15
 601 374 601 374 498 374 c 1,16,-1
 498 0 l 1,17,-1
 374 0 l 1,0,-1
EndSplineSet
EndChar

StartChar: E
Encoding: 69 69 38
Width: 847
VWidth: 747
Flags: W
LayerCount: 2
Fore
SplineSet
0 0 m 1,0,-1
 0 872 l 1,1,-1
 124 872 l 1,2,-1
 124 124 l 1,3,4
 175 124 175 124 212 161 c 0,5,6
 248 197 248 197 249 249 c 2,7,-1
 249 872 l 1,8,-1
 747 872 l 1,9,-1
 747 747 l 1,10,-1
 623 747 l 1,11,-1
 623 0 l 1,12,-1
 498 0 l 1,13,-1
 498 747 l 1,14,-1
 374 747 l 1,15,-1
 374 249 l 2,16,17
 374 146 374 146 300 73 c 0,18,19
 227 0 227 0 124 0 c 2,20,-1
 0 0 l 1,0,-1
EndSplineSet
EndChar

StartChar: F
Encoding: 70 70 39
Width: 847
VWidth: 747
Flags: W
LayerCount: 2
Fore
SplineSet
249 0 m 1,0,1
 146 0 146 0 73 73 c 128,-1,2
 0 146 0 146 0 249 c 2,3,-1
 0 498 l 1,4,-1
 249 498 l 1,5,-1
 249 747 l 1,6,-1
 124 747 l 1,7,-1
 124 872 l 1,8,-1
 374 872 l 1,9,-1
 374 498 l 1,10,-1
 747 498 l 1,11,-1
 747 374 l 1,12,-1
 374 374 l 1,13,-1
 374 249 l 2,14,15
 374 198 374 198 410 161 c 0,16,17
 446 125 446 125 498 124 c 2,18,-1
 747 124 l 1,19,-1
 747 0 l 1,20,-1
 498 0 l 2,21,22
 413 0 413 0 349 50 c 1,23,-1
 249 0 l 1,0,1
282 124 m 1,24,25
 249 179 249 179 249 249 c 2,26,-1
 249 374 l 1,27,-1
 124 374 l 1,28,-1
 124 249 l 2,29,30
 124 198 124 198 161 161 c 0,31,32
 197 125 197 125 249 124 c 2,33,-1
 282 124 l 1,24,25
EndSplineSet
EndChar

StartChar: G
Encoding: 71 71 40
Width: 847
VWidth: 747
Flags: W
LayerCount: 2
Fore
SplineSet
0 0 m 1,0,-1
 0 872 l 1,1,-1
 124 872 l 1,2,-1
 124 124 l 1,3,-1
 498 124 l 2,4,5
 549 124 549 124 586 161 c 0,6,7
 622 197 622 197 623 249 c 2,8,-1
 623 747 l 1,9,-1
 374 747 l 1,10,-1
 374 623 l 1,11,-1
 249 623 l 1,12,-1
 249 872 l 1,13,-1
 747 872 l 1,14,-1
 747 249 l 2,15,16
 747 146 747 146 674 73 c 128,-1,17
 601 0 601 0 498 0 c 2,18,-1
 0 0 l 1,0,-1
EndSplineSet
EndChar

StartChar: H
Encoding: 72 72 41
Width: 847
VWidth: 747
Flags: W
LayerCount: 2
Fore
SplineSet
0 747 m 1,0,-1
 0 872 l 1,1,-1
 747 872 l 1,2,-1
 747 747 l 1,3,-1
 0 747 l 1,0,-1
124 374 m 1,4,-1
 124 498 l 1,5,-1
 623 498 l 1,6,-1
 623 374 l 1,7,-1
 124 374 l 1,4,-1
0 0 m 1,8,-1
 0 124 l 1,9,-1
 747 124 l 1,10,-1
 747 0 l 1,11,-1
 0 0 l 1,8,-1
EndSplineSet
EndChar

StartChar: I
Encoding: 73 73 42
Width: 847
VWidth: 747
Flags: W
LayerCount: 2
Fore
SplineSet
498 0 m 1,0,-1
 498 747 l 1,1,-1
 249 747 l 2,2,3
 198 747 198 747 161 711 c 0,4,5
 125 675 125 675 124 623 c 1,6,-1
 0 623 l 1,7,8
 0 726 0 726 73 799 c 128,-1,9
 146 872 146 872 249 872 c 2,10,-1
 747 872 l 1,11,-1
 747 747 l 1,12,-1
 623 747 l 1,13,-1
 623 0 l 1,14,-1
 498 0 l 1,0,-1
EndSplineSet
EndChar

StartChar: J
Encoding: 74 74 43
Width: 847
VWidth: 747
Flags: W
LayerCount: 2
Fore
SplineSet
0 0 m 1,0,-1
 0 124 l 1,1,-1
 623 124 l 1,2,-1
 623 531 l 1,3,4
 568 499 568 499 498 498 c 2,5,-1
 0 498 l 1,6,-1
 0 623 l 1,7,-1
 498 623 l 2,8,9
 549 623 549 623 586 659 c 0,10,11
 622 695 622 695 623 747 c 2,12,-1
 623 872 l 1,13,-1
 747 872 l 1,14,-1
 747 0 l 1,15,-1
 0 0 l 1,0,-1
EndSplineSet
EndChar

StartChar: K
Encoding: 75 75 44
Width: 847
VWidth: 747
Flags: W
LayerCount: 2
Fore
SplineSet
0 0 m 1,0,-1
 0 124 l 1,1,-1
 623 124 l 1,2,-1
 623 747 l 1,3,-1
 0 747 l 1,4,-1
 0 872 l 1,5,-1
 747 872 l 1,6,-1
 747 0 l 1,7,-1
 0 0 l 1,0,-1
EndSplineSet
EndChar

StartChar: L
Encoding: 76 76 45
Width: 847
VWidth: 747
Flags: W
LayerCount: 2
Fore
SplineSet
249 0 m 2,0,1
 146 0 146 0 73 73 c 128,-1,2
 0 146 0 146 0 249 c 2,3,-1
 0 374 l 1,4,-1
 124 374 l 1,5,-1
 124 249 l 2,6,7
 124 198 124 198 161 161 c 0,8,9
 197 125 197 125 249 124 c 2,10,-1
 623 124 l 1,11,-1
 623 747 l 1,12,-1
 498 747 l 1,13,-1
 498 872 l 1,14,-1
 747 872 l 1,15,-1
 747 0 l 1,16,-1
 249 0 l 2,0,1
EndSplineSet
EndChar

StartChar: M
Encoding: 77 77 46
Width: 847
VWidth: 747
Flags: W
LayerCount: 2
Fore
SplineSet
0 0 m 1,0,-1
 0 623 l 2,1,2
 0 726 0 726 73 799 c 128,-1,3
 146 872 146 872 249 872 c 2,4,-1
 623 872 l 1,5,-1
 623 747 l 1,6,-1
 249 747 l 2,7,8
 198 747 198 747 161 711 c 0,9,10
 125 675 125 675 124 623 c 2,11,-1
 124 124 l 1,12,-1
 747 124 l 1,13,-1
 747 0 l 1,14,-1
 0 0 l 1,0,-1
EndSplineSet
EndChar

StartChar: N
Encoding: 78 78 47
Width: 847
VWidth: 747
Flags: W
LayerCount: 2
Fore
SplineSet
249 0 m 2,0,1
 146 0 146 0 73 73 c 128,-1,2
 0 146 0 146 0 249 c 2,3,-1
 0 623 l 2,4,5
 0 726 0 726 73 799 c 128,-1,6
 146 872 146 872 249 872 c 1,7,-1
 249 747 l 1,8,9
 198 747 198 747 161 711 c 0,10,11
 125 675 125 675 124 623 c 2,12,-1
 124 249 l 2,13,14
 124 198 124 198 161 161 c 0,15,16
 197 125 197 125 249 124 c 2,17,-1
 374 124 l 1,18,-1
 374 872 l 1,19,-1
 498 872 l 2,20,21
 601 872 601 872 674 799 c 128,-1,22
 747 726 747 726 747 623 c 2,23,-1
 747 0 l 1,24,-1
 623 0 l 1,25,-1
 623 623 l 2,26,27
 623 674 623 674 586 711 c 0,28,29
 550 748 550 748 498 747 c 1,30,-1
 498 0 l 1,31,-1
 249 0 l 2,0,1
EndSplineSet
EndChar

StartChar: O
Encoding: 79 79 48
Width: 847
VWidth: 747
Flags: W
LayerCount: 2
Fore
SplineSet
0 0 m 1,0,-1
 0 623 l 2,1,2
 0 726 0 726 73 799 c 128,-1,3
 146 872 146 872 249 872 c 2,4,-1
 498 872 l 2,5,6
 601 872 601 872 674 799 c 128,-1,7
 747 726 747 726 747 623 c 2,8,-1
 747 0 l 1,9,-1
 0 0 l 1,0,-1
623 124 m 1,10,-1
 623 623 l 2,11,12
 623 674 623 674 586 711 c 0,13,14
 550 748 550 748 498 747 c 2,15,-1
 249 747 l 2,16,17
 198 747 198 747 161 711 c 0,18,19
 125 675 125 675 124 623 c 2,20,-1
 124 124 l 1,21,-1
 623 124 l 1,10,-1
EndSplineSet
EndChar

StartChar: P
Encoding: 80 80 49
Width: 847
VWidth: 747
Flags: W
LayerCount: 2
Fore
SplineSet
249 0 m 2,0,1
 146 0 146 0 73 73 c 128,-1,2
 0 146 0 146 0 249 c 2,3,-1
 0 623 l 2,4,5
 0 726 0 726 73 799 c 128,-1,6
 146 872 146 872 249 872 c 2,7,-1
 498 872 l 1,8,-1
 498 623 l 1,9,-1
 374 623 l 1,10,-1
 374 747 l 1,11,-1
 249 747 l 2,12,13
 198 747 198 747 161 711 c 0,14,15
 125 675 125 675 124 623 c 2,16,-1
 124 249 l 2,17,18
 124 198 124 198 161 161 c 0,19,20
 197 125 197 125 249 124 c 2,21,-1
 623 124 l 1,22,-1
 623 872 l 1,23,-1
 747 872 l 1,24,-1
 747 0 l 1,25,-1
 249 0 l 2,0,1
EndSplineSet
EndChar

StartChar: Q
Encoding: 81 81 50
Width: 847
VWidth: 747
Flags: W
LayerCount: 2
Fore
SplineSet
249 0 m 2,0,1
 146 0 146 0 73 73 c 128,-1,2
 0 146 0 146 0 249 c 2,3,-1
 0 872 l 1,4,-1
 747 872 l 1,5,-1
 747 498 l 1,6,-1
 623 498 l 1,7,-1
 623 747 l 1,8,-1
 124 747 l 1,9,-1
 124 249 l 2,10,11
 124 198 124 198 161 161 c 0,12,13
 197 125 197 125 249 124 c 2,14,-1
 374 124 l 1,15,-1
 374 0 l 1,16,-1
 249 0 l 2,0,1
EndSplineSet
EndChar

StartChar: R
Encoding: 82 82 51
Width: 847
VWidth: 747
Flags: W
LayerCount: 2
Fore
SplineSet
374 0 m 1,0,-1
 374 498 l 1,1,-1
 498 498 l 2,2,3
 549 498 549 498 586 535 c 0,4,5
 622 571 622 571 623 623 c 2,6,-1
 623 747 l 1,7,-1
 0 747 l 1,8,-1
 0 872 l 1,9,-1
 747 872 l 1,10,-1
 747 623 l 2,11,12
 747 520 747 520 674 447 c 128,-1,13
 601 374 601 374 498 374 c 1,14,-1
 498 0 l 1,15,-1
 374 0 l 1,0,-1
EndSplineSet
EndChar

StartChar: S
Encoding: 83 83 52
Width: 847
VWidth: 747
Flags: W
LayerCount: 2
Fore
SplineSet
623 0 m 1,0,-1
 623 374 l 1,1,-1
 249 374 l 2,2,3
 146 374 146 374 73 447 c 128,-1,4
 0 520 0 520 0 623 c 2,5,-1
 0 872 l 1,6,-1
 124 872 l 1,7,-1
 124 623 l 2,8,9
 124 572 124 572 161 535 c 0,10,11
 197 499 197 499 249 498 c 2,12,-1
 623 498 l 1,13,-1
 623 872 l 1,14,-1
 747 872 l 1,15,-1
 747 0 l 1,16,-1
 623 0 l 1,0,-1
124 124 m 1,17,-1
 124 249 l 1,18,-1
 498 249 l 1,19,-1
 498 124 l 1,20,-1
 124 124 l 1,17,-1
EndSplineSet
EndChar

StartChar: T
Encoding: 84 84 53
Width: 847
VWidth: 747
Flags: W
LayerCount: 2
Fore
SplineSet
249 0 m 2,0,1
 146 0 146 0 73 73 c 128,-1,2
 0 146 0 146 0 249 c 1,3,-1
 124 249 l 1,4,5
 124 198 124 198 161 161 c 0,6,7
 197 125 197 125 249 124 c 2,8,-1
 311 124 l 1,9,-1
 311 747 l 1,10,-1
 187 747 l 1,11,-1
 187 872 l 1,12,-1
 436 872 l 1,13,-1
 436 124 l 1,14,-1
 498 124 l 2,15,16
 549 124 549 124 586 161 c 0,17,18
 622 197 622 197 623 249 c 1,19,-1
 747 249 l 1,20,21
 747 146 747 146 674 73 c 128,-1,22
 601 0 601 0 498 0 c 2,23,-1
 249 0 l 2,0,1
EndSplineSet
EndChar

StartChar: U
Encoding: 85 85 54
Width: 847
VWidth: 747
Flags: W
LayerCount: 2
Fore
SplineSet
0 0 m 1,0,-1
 0 872 l 1,1,-1
 124 872 l 1,2,-1
 124 124 l 1,3,-1
 623 124 l 1,4,-1
 623 747 l 1,5,-1
 498 747 l 2,6,7
 447 747 447 747 410 711 c 0,8,9
 374 675 374 675 374 623 c 1,10,-1
 249 623 l 1,11,12
 249 726 249 726 322 799 c 128,-1,13
 395 872 395 872 498 872 c 2,14,-1
 747 872 l 1,15,-1
 747 0 l 1,16,-1
 0 0 l 1,0,-1
EndSplineSet
EndChar

StartChar: V
Encoding: 86 86 55
Width: 847
VWidth: 747
Flags: W
LayerCount: 2
Fore
SplineSet
311 0 m 1,0,-1
 311 498 l 1,1,-1
 249 498 l 2,2,3
 146 498 146 498 73 571 c 128,-1,4
 0 644 0 644 0 747 c 2,5,-1
 0 872 l 1,6,-1
 124 872 l 1,7,-1
 124 747 l 2,8,9
 124 695 124 695 161 659 c 0,10,11
 197 622 197 622 249 623 c 2,12,-1
 498 623 l 2,13,14
 549 623 549 623 586 659 c 0,15,16
 622 695 622 695 623 747 c 2,17,-1
 623 872 l 1,18,-1
 747 872 l 1,19,-1
 747 747 l 2,20,21
 747 644 747 644 674 571 c 128,-1,22
 601 498 601 498 498 498 c 2,23,-1
 436 498 l 1,24,-1
 436 0 l 1,25,-1
 311 0 l 1,0,-1
EndSplineSet
EndChar

StartChar: W
Encoding: 87 87 56
Width: 847
VWidth: 747
Flags: W
LayerCount: 2
Fore
SplineSet
0 0 m 1,0,-1
 0 872 l 1,1,-1
 747 872 l 1,2,-1
 747 0 l 1,3,-1
 0 0 l 1,0,-1
623 124 m 1,4,-1
 623 747 l 1,5,-1
 124 747 l 1,6,-1
 124 124 l 1,7,-1
 623 124 l 1,4,-1
EndSplineSet
EndChar

StartChar: X
Encoding: 88 88 57
Width: 847
VWidth: 747
Flags: W
LayerCount: 2
Fore
SplineSet
0 0 m 1,0,-1
 0 124 l 1,1,-1
 124 124 l 1,2,-1
 124 623 l 2,3,4
 124 726 124 726 197 799 c 128,-1,5
 270 872 270 872 374 872 c 2,6,-1
 623 872 l 1,7,-1
 623 124 l 1,8,-1
 747 124 l 1,9,-1
 747 0 l 1,10,-1
 0 0 l 1,0,-1
498 124 m 1,11,-1
 498 747 l 1,12,-1
 374 747 l 2,13,14
 322 747 322 747 286 711 c 0,15,16
 249 675 249 675 249 623 c 2,17,-1
 249 124 l 1,18,-1
 498 124 l 1,11,-1
EndSplineSet
EndChar

StartChar: Y
Encoding: 89 89 58
Width: 847
VWidth: 747
Flags: W
LayerCount: 2
Fore
SplineSet
374 0 m 2,0,1
 271 0 271 0 197 73 c 0,2,3
 124 146 124 146 124 249 c 2,4,-1
 124 747 l 1,5,-1
 0 747 l 1,6,-1
 0 872 l 1,7,-1
 498 872 l 1,8,-1
 498 623 l 1,9,-1
 374 623 l 1,10,-1
 374 747 l 1,11,-1
 249 747 l 1,12,-1
 249 249 l 2,13,14
 249 198 249 198 286 161 c 0,15,16
 322 125 322 125 374 124 c 2,17,-1
 498 124 l 2,18,19
 549 124 549 124 586 161 c 0,20,21
 622 197 622 197 623 249 c 2,22,-1
 623 872 l 1,23,-1
 747 872 l 1,24,-1
 747 249 l 2,25,26
 747 146 747 146 674 73 c 128,-1,27
 601 0 601 0 498 0 c 2,28,-1
 374 0 l 2,0,1
EndSplineSet
EndChar

StartChar: Z
Encoding: 90 90 59
Width: 847
VWidth: 747
Flags: W
LayerCount: 2
Fore
SplineSet
249 0 m 2,0,1
 146 0 146 0 73 73 c 128,-1,2
 0 146 0 146 0 249 c 1,3,-1
 124 249 l 1,4,5
 124 198 124 198 161 161 c 0,6,7
 197 125 197 125 249 124 c 2,8,-1
 623 124 l 1,9,-1
 623 374 l 1,10,-1
 249 374 l 1,11,-1
 249 498 l 1,12,-1
 623 498 l 1,13,-1
 623 747 l 1,14,-1
 498 747 l 1,15,-1
 498 872 l 1,16,-1
 747 872 l 1,17,-1
 747 0 l 1,18,-1
 249 0 l 2,0,1
EndSplineSet
EndChar

StartChar: bracketleft
Encoding: 91 91 60
Width: 847
VWidth: 747
Flags: W
LayerCount: 2
Fore
SplineSet
249 498 m 1,0,-1
 249 623 l 1,1,-1
 374 623 l 1,2,-1
 374 872 l 1,3,-1
 498 872 l 1,4,-1
 498 498 l 1,5,-1
 249 498 l 1,0,-1
374 0 m 1,6,-1
 374 249 l 1,7,-1
 249 249 l 1,8,-1
 249 374 l 1,9,-1
 498 374 l 1,10,-1
 498 0 l 1,11,-1
 374 0 l 1,6,-1
EndSplineSet
EndChar

StartChar: backslash
Encoding: 92 92 61
Width: 847
VWidth: 747
Flags: W
LayerCount: 2
Fore
SplineSet
498 0 m 1,0,-1
 498 249 l 2,1,2
 498 300 498 300 461 337 c 0,3,4
 425 374 425 374 374 374 c 0,5,6
 271 374 271 374 197 447 c 0,7,8
 124 520 124 520 124 623 c 2,9,-1
 124 872 l 1,10,-1
 249 872 l 1,11,-1
 249 623 l 2,12,13
 249 572 249 572 286 535 c 0,14,15
 322 499 322 499 374 498 c 0,16,17
 477 498 477 498 550 425 c 128,-1,18
 623 352 623 352 623 249 c 2,19,-1
 623 0 l 1,20,-1
 498 0 l 1,0,-1
EndSplineSet
EndChar

StartChar: bracketright
Encoding: 93 93 62
Width: 847
VWidth: 747
Flags: W
LayerCount: 2
Fore
SplineSet
249 498 m 1,0,-1
 249 872 l 1,1,-1
 374 872 l 1,2,-1
 374 623 l 1,3,-1
 498 623 l 1,4,-1
 498 498 l 1,5,-1
 249 498 l 1,0,-1
249 0 m 1,6,-1
 249 374 l 1,7,-1
 498 374 l 1,8,-1
 498 249 l 1,9,-1
 374 249 l 1,10,-1
 374 0 l 1,11,-1
 249 0 l 1,6,-1
EndSplineSet
EndChar

StartChar: asciicircum
Encoding: 94 94 63
Width: 847
VWidth: 747
Flags: W
LayerCount: 2
Fore
SplineSet
124 561 m 1,0,-1
 124 685 l 1,1,-1
 311 685 l 1,2,-1
 311 872 l 1,3,-1
 436 872 l 1,4,-1
 436 685 l 1,5,-1
 623 685 l 1,6,-1
 623 561 l 1,7,-1
 124 561 l 1,0,-1
EndSplineSet
EndChar

StartChar: underscore
Encoding: 95 95 64
Width: 847
VWidth: 747
Flags: W
LayerCount: 2
Fore
SplineSet
0 0 m 1,0,-1
 0 124 l 1,1,-1
 747 124 l 1,2,-1
 747 0 l 1,3,-1
 0 0 l 1,0,-1
EndSplineSet
EndChar

StartChar: grave
Encoding: 96 96 65
Width: 847
VWidth: 747
Flags: W
LayerCount: 2
Fore
SplineSet
498 498 m 1,0,1
 395 498 395 498 322 571 c 128,-1,2
 249 644 249 644 249 747 c 2,3,-1
 249 872 l 1,4,-1
 498 872 l 1,5,-1
 498 747 l 1,6,-1
 374 747 l 1,7,8
 374 695 374 695 410 659 c 0,9,10
 446 622 446 622 498 623 c 1,11,-1
 498 498 l 1,0,1
EndSplineSet
EndChar

StartChar: a
Encoding: 97 97 66
Width: 847
VWidth: 747
Flags: W
LayerCount: 2
Fore
SplineSet
0 374 m 1,0,-1
 0 623 l 1,1,-1
 124 623 l 1,2,-1
 124 498 l 1,3,-1
 498 498 l 2,4,5
 549 498 549 498 586 535 c 0,6,7
 622 571 622 571 623 623 c 1,8,-1
 747 623 l 1,9,10
 747 520 747 520 674 447 c 128,-1,11
 601 374 601 374 498 374 c 2,12,-1
 0 374 l 1,0,-1
0 0 m 1,13,-1
 0 249 l 1,14,-1
 498 249 l 2,15,16
 601 249 601 249 674 176 c 128,-1,17
 747 103 747 103 747 0 c 1,18,-1
 623 0 l 1,19,20
 623 51 623 51 586 88 c 0,21,22
 550 125 550 125 498 124 c 2,23,-1
 124 124 l 1,24,-1
 124 0 l 1,25,-1
 0 0 l 1,13,-1
EndSplineSet
EndChar

StartChar: b
Encoding: 98 98 67
Width: 847
VWidth: 747
Flags: W
LayerCount: 2
Fore
SplineSet
0 374 m 1,0,1
 0 477 0 477 73 550 c 128,-1,2
 146 623 146 623 249 623 c 2,3,-1
 498 623 l 2,4,5
 601 623 601 623 674 550 c 128,-1,6
 747 477 747 477 747 374 c 1,7,-1
 623 374 l 1,8,9
 623 425 623 425 586 461 c 0,10,11
 550 498 550 498 498 498 c 2,12,-1
 249 498 l 2,13,14
 198 498 198 498 161 461 c 0,15,16
 125 425 125 425 124 374 c 1,17,-1
 0 374 l 1,0,1
249 249 m 1,18,-1
 249 374 l 1,19,-1
 498 374 l 1,20,-1
 498 249 l 1,21,-1
 249 249 l 1,18,-1
249 0 m 2,22,23
 146 0 146 0 73 73 c 128,-1,24
 0 146 0 146 0 249 c 1,25,-1
 124 249 l 1,26,27
 124 198 124 198 161 161 c 0,28,29
 197 125 197 125 249 124 c 2,30,-1
 498 124 l 2,31,32
 549 124 549 124 586 161 c 0,33,34
 622 197 622 197 623 249 c 1,35,-1
 747 249 l 1,36,37
 747 146 747 146 674 73 c 128,-1,38
 601 0 601 0 498 0 c 2,39,-1
 249 0 l 2,22,23
EndSplineSet
EndChar

StartChar: c
Encoding: 99 99 68
Width: 847
VWidth: 747
Flags: W
LayerCount: 2
Fore
SplineSet
124 124 m 1,0,-1
 124 623 l 1,1,-1
 0 623 l 1,2,-1
 0 747 l 1,3,-1
 249 747 l 1,4,-1
 249 124 l 1,5,-1
 124 124 l 1,0,-1
623 -124 m 1,6,-1
 623 498 l 1,7,-1
 747 498 l 1,8,-1
 747 -124 l 1,9,-1
 623 -124 l 1,6,-1
374 124 m 1,10,-1
 374 498 l 1,11,-1
 498 498 l 1,12,-1
 498 124 l 1,13,-1
 374 124 l 1,10,-1
EndSplineSet
EndChar

StartChar: d
Encoding: 100 100 69
Width: 847
VWidth: 747
Flags: W
LayerCount: 2
Fore
SplineSet
374 -124 m 1,0,-1
 374 249 l 1,1,-1
 124 249 l 1,2,-1
 124 374 l 1,3,-1
 498 374 l 2,4,5
 549 374 549 374 586 410 c 0,6,7
 622 446 622 446 623 498 c 1,8,-1
 0 498 l 1,9,-1
 0 623 l 1,10,-1
 747 623 l 1,11,-1
 747 498 l 2,12,13
 747 395 747 395 674 322 c 128,-1,14
 601 249 601 249 498 249 c 1,15,-1
 498 -124 l 1,16,-1
 374 -124 l 1,0,-1
EndSplineSet
EndChar

StartChar: e
Encoding: 101 101 70
Width: 847
VWidth: 747
Flags: W
LayerCount: 2
Fore
SplineSet
498 -124 m 1,0,-1
 498 498 l 1,1,-1
 374 498 l 1,2,-1
 374 249 l 2,3,4
 374 146 374 146 300 73 c 0,5,6
 227 0 227 0 124 0 c 2,7,-1
 0 0 l 1,8,-1
 0 623 l 1,9,-1
 124 623 l 1,10,-1
 124 124 l 1,11,12
 175 124 175 124 212 161 c 0,13,14
 248 197 248 197 249 249 c 2,15,-1
 249 623 l 1,16,-1
 747 623 l 1,17,-1
 747 498 l 1,18,-1
 623 498 l 1,19,-1
 623 -124 l 1,20,-1
 498 -124 l 1,0,-1
EndSplineSet
EndChar

StartChar: f
Encoding: 102 102 71
Width: 847
VWidth: 747
Flags: W
LayerCount: 2
Fore
SplineSet
249 0 m 1,0,1
 146 0 146 0 73 73 c 128,-1,2
 0 146 0 146 0 249 c 2,3,-1
 0 374 l 1,4,-1
 249 374 l 1,5,-1
 249 623 l 1,6,-1
 124 623 l 1,7,-1
 124 747 l 1,8,-1
 374 747 l 1,9,-1
 374 374 l 1,10,-1
 747 374 l 1,11,-1
 747 249 l 1,12,-1
 374 249 l 1,13,14
 374 198 374 198 410 161 c 0,15,16
 446 125 446 125 498 124 c 2,17,-1
 747 124 l 1,18,-1
 747 0 l 1,19,-1
 498 0 l 2,20,21
 413 0 413 0 349 50 c 1,22,-1
 249 0 l 1,0,1
282 124 m 1,23,24
 249 179 249 179 249 249 c 1,25,-1
 124 249 l 1,26,27
 124 198 124 198 161 161 c 0,28,29
 197 125 197 125 249 124 c 2,30,-1
 282 124 l 1,23,24
EndSplineSet
EndChar

StartChar: g
Encoding: 103 103 72
Width: 847
VWidth: 747
Flags: W
LayerCount: 2
Fore
SplineSet
0 0 m 1,0,-1
 0 623 l 1,1,-1
 124 623 l 1,2,-1
 124 124 l 1,3,-1
 498 124 l 2,4,5
 549 124 549 124 586 161 c 0,6,7
 622 197 622 197 623 249 c 2,8,-1
 623 498 l 1,9,-1
 374 498 l 1,10,-1
 374 374 l 1,11,-1
 249 374 l 1,12,-1
 249 623 l 1,13,-1
 747 623 l 1,14,-1
 747 249 l 2,15,16
 747 146 747 146 674 73 c 128,-1,17
 601 0 601 0 498 0 c 2,18,-1
 0 0 l 1,0,-1
EndSplineSet
EndChar

StartChar: h
Encoding: 104 104 73
Width: 847
VWidth: 747
Flags: W
LayerCount: 2
Fore
SplineSet
0 498 m 1,0,-1
 0 623 l 1,1,-1
 747 623 l 1,2,-1
 747 498 l 1,3,-1
 0 498 l 1,0,-1
124 249 m 1,4,-1
 124 374 l 1,5,-1
 623 374 l 1,6,-1
 623 249 l 1,7,-1
 124 249 l 1,4,-1
0 0 m 1,8,-1
 0 124 l 1,9,-1
 747 124 l 1,10,-1
 747 0 l 1,11,-1
 0 0 l 1,8,-1
EndSplineSet
EndChar

StartChar: i
Encoding: 105 105 74
Width: 847
VWidth: 747
Flags: W
LayerCount: 2
Fore
SplineSet
498 -124 m 1,0,-1
 498 498 l 1,1,-1
 249 498 l 2,2,3
 198 498 198 498 161 461 c 0,4,5
 125 425 125 425 124 374 c 1,6,-1
 0 374 l 1,7,8
 0 477 0 477 73 550 c 128,-1,9
 146 623 146 623 249 623 c 2,10,-1
 747 623 l 1,11,-1
 747 498 l 1,12,-1
 623 498 l 1,13,-1
 623 -124 l 1,14,-1
 498 -124 l 1,0,-1
EndSplineSet
EndChar

StartChar: j
Encoding: 106 106 75
Width: 847
VWidth: 747
Flags: W
LayerCount: 2
Fore
SplineSet
0 0 m 1,0,-1
 0 124 l 1,1,-1
 623 124 l 1,2,-1
 623 406 l 1,3,4
 568 374 568 374 498 374 c 2,5,-1
 0 374 l 1,6,-1
 0 498 l 1,7,-1
 498 498 l 2,8,9
 549 498 549 498 586 535 c 0,10,11
 622 571 622 571 623 623 c 1,12,-1
 747 623 l 1,13,-1
 747 0 l 1,14,-1
 0 0 l 1,0,-1
EndSplineSet
EndChar

StartChar: k
Encoding: 107 107 76
Width: 847
VWidth: 747
Flags: W
LayerCount: 2
Fore
SplineSet
0 0 m 1,0,-1
 0 124 l 1,1,-1
 623 124 l 1,2,-1
 623 498 l 1,3,-1
 0 498 l 1,4,-1
 0 623 l 1,5,-1
 747 623 l 1,6,-1
 747 0 l 1,7,-1
 0 0 l 1,0,-1
EndSplineSet
EndChar

StartChar: l
Encoding: 108 108 77
Width: 847
VWidth: 747
Flags: W
LayerCount: 2
Fore
SplineSet
249 0 m 2,0,1
 146 0 146 0 73 73 c 128,-1,2
 0 146 0 146 0 249 c 1,3,-1
 124 249 l 1,4,5
 124 198 124 198 161 161 c 0,6,7
 197 125 197 125 249 124 c 2,8,-1
 498 124 l 1,9,-1
 498 623 l 1,10,-1
 374 623 l 1,11,-1
 374 747 l 1,12,-1
 623 747 l 1,13,-1
 623 124 l 1,14,-1
 747 124 l 1,15,-1
 747 0 l 1,16,-1
 249 0 l 2,0,1
EndSplineSet
EndChar

StartChar: m
Encoding: 109 109 78
Width: 847
VWidth: 747
Flags: W
LayerCount: 2
Fore
SplineSet
0 0 m 1,0,-1
 0 374 l 2,1,2
 0 477 0 477 73 550 c 128,-1,3
 146 623 146 623 249 623 c 2,4,-1
 623 623 l 1,5,-1
 623 498 l 1,6,-1
 249 498 l 2,7,8
 198 498 198 498 161 461 c 0,9,10
 125 425 125 425 124 374 c 2,11,-1
 124 124 l 1,12,-1
 747 124 l 1,13,-1
 747 0 l 1,14,-1
 0 0 l 1,0,-1
EndSplineSet
EndChar

StartChar: n
Encoding: 110 110 79
Width: 847
VWidth: 747
Flags: W
LayerCount: 2
Fore
SplineSet
249 0 m 2,0,1
 146 0 146 0 73 73 c 128,-1,2
 0 146 0 146 0 249 c 2,3,-1
 0 374 l 2,4,5
 0 477 0 477 73 550 c 128,-1,6
 146 623 146 623 249 623 c 1,7,-1
 249 498 l 1,8,9
 198 498 198 498 161 461 c 0,10,11
 125 425 125 425 124 374 c 2,12,-1
 124 249 l 2,13,14
 124 198 124 198 161 161 c 0,15,16
 197 125 197 125 249 124 c 2,17,-1
 374 124 l 1,18,-1
 374 623 l 1,19,-1
 498 623 l 2,20,21
 601 623 601 623 674 550 c 128,-1,22
 747 477 747 477 747 374 c 2,23,-1
 747 0 l 1,24,-1
 623 0 l 1,25,-1
 623 374 l 2,26,27
 623 425 623 425 586 461 c 0,28,29
 550 498 550 498 498 498 c 1,30,-1
 498 0 l 1,31,-1
 249 0 l 2,0,1
EndSplineSet
EndChar

StartChar: o
Encoding: 111 111 80
Width: 847
VWidth: 747
Flags: W
LayerCount: 2
Fore
SplineSet
0 0 m 1,0,-1
 0 374 l 2,1,2
 0 477 0 477 73 550 c 128,-1,3
 146 623 146 623 249 623 c 2,4,-1
 498 623 l 2,5,6
 601 623 601 623 674 550 c 128,-1,7
 747 477 747 477 747 374 c 2,8,-1
 747 0 l 1,9,-1
 0 0 l 1,0,-1
623 124 m 1,10,-1
 623 374 l 2,11,12
 623 425 623 425 586 461 c 0,13,14
 550 498 550 498 498 498 c 2,15,-1
 249 498 l 2,16,17
 198 498 198 498 161 461 c 0,18,19
 125 425 125 425 124 374 c 2,20,-1
 124 124 l 1,21,-1
 623 124 l 1,10,-1
EndSplineSet
EndChar

StartChar: p
Encoding: 112 112 81
Width: 847
VWidth: 747
Flags: W
LayerCount: 2
Fore
SplineSet
249 0 m 2,0,1
 146 0 146 0 73 73 c 128,-1,2
 0 146 0 146 0 249 c 2,3,-1
 0 374 l 2,4,5
 0 477 0 477 73 550 c 128,-1,6
 146 623 146 623 249 623 c 2,7,-1
 498 623 l 1,8,-1
 498 374 l 1,9,-1
 374 374 l 1,10,-1
 374 498 l 1,11,-1
 249 498 l 2,12,13
 198 498 198 498 161 461 c 0,14,15
 125 425 125 425 124 374 c 2,16,-1
 124 249 l 2,17,18
 124 198 124 198 161 161 c 0,19,20
 197 125 197 125 249 124 c 2,21,-1
 623 124 l 1,22,-1
 623 623 l 1,23,-1
 747 623 l 1,24,-1
 747 0 l 1,25,-1
 249 0 l 2,0,1
EndSplineSet
EndChar

StartChar: q
Encoding: 113 113 82
Width: 847
VWidth: 747
Flags: W
LayerCount: 2
Fore
SplineSet
249 0 m 2,0,1
 146 0 146 0 73 73 c 128,-1,2
 0 146 0 146 0 249 c 2,3,-1
 0 623 l 1,4,-1
 747 623 l 1,5,-1
 747 374 l 1,6,-1
 623 374 l 1,7,-1
 623 498 l 1,8,-1
 124 498 l 1,9,-1
 124 249 l 2,10,11
 124 198 124 198 161 161 c 0,12,13
 197 125 197 125 249 124 c 2,14,-1
 374 124 l 1,15,-1
 374 0 l 1,16,-1
 249 0 l 2,0,1
EndSplineSet
EndChar

StartChar: r
Encoding: 114 114 83
Width: 847
VWidth: 747
Flags: W
LayerCount: 2
Fore
SplineSet
374 -124 m 1,0,-1
 374 374 l 1,1,-1
 498 374 l 2,2,3
 549 374 549 374 586 410 c 0,4,5
 622 446 622 446 623 498 c 1,6,-1
 0 498 l 1,7,-1
 0 623 l 1,8,-1
 747 623 l 1,9,-1
 747 498 l 2,10,11
 747 395 747 395 674 322 c 128,-1,12
 601 249 601 249 498 249 c 1,13,-1
 498 -124 l 1,14,-1
 374 -124 l 1,0,-1
EndSplineSet
EndChar

StartChar: s
Encoding: 115 115 84
Width: 847
VWidth: 747
Flags: W
LayerCount: 2
Fore
SplineSet
623 0 m 1,0,-1
 623 249 l 1,1,-1
 249 249 l 2,2,3
 146 249 146 249 73 322 c 128,-1,4
 0 395 0 395 0 498 c 2,5,-1
 0 623 l 1,6,-1
 124 623 l 1,7,-1
 124 498 l 2,8,9
 124 447 124 447 161 410 c 0,10,11
 197 374 197 374 249 374 c 2,12,-1
 623 374 l 1,13,-1
 623 623 l 1,14,-1
 747 623 l 1,15,-1
 747 0 l 1,16,-1
 623 0 l 1,0,-1
124 0 m 1,17,-1
 124 124 l 1,18,-1
 498 124 l 1,19,-1
 498 0 l 1,20,-1
 124 0 l 1,17,-1
EndSplineSet
EndChar

StartChar: t
Encoding: 116 116 85
Width: 847
VWidth: 747
Flags: W
LayerCount: 2
Fore
SplineSet
249 0 m 2,0,1
 146 0 146 0 73 73 c 128,-1,2
 0 146 0 146 0 249 c 1,3,-1
 124 249 l 1,4,5
 124 198 124 198 161 161 c 0,6,7
 197 125 197 125 249 124 c 2,8,-1
 311 124 l 1,9,-1
 311 623 l 1,10,-1
 187 623 l 1,11,-1
 187 747 l 1,12,-1
 436 747 l 1,13,-1
 436 124 l 1,14,-1
 498 124 l 2,15,16
 549 124 549 124 586 161 c 0,17,18
 622 197 622 197 623 249 c 1,19,-1
 747 249 l 1,20,21
 747 146 747 146 674 73 c 128,-1,22
 601 0 601 0 498 0 c 2,23,-1
 249 0 l 2,0,1
EndSplineSet
EndChar

StartChar: u
Encoding: 117 117 86
Width: 847
VWidth: 747
Flags: W
LayerCount: 2
Fore
SplineSet
0 0 m 1,0,-1
 0 623 l 1,1,-1
 124 623 l 1,2,-1
 124 124 l 1,3,-1
 623 124 l 1,4,-1
 623 498 l 1,5,-1
 498 498 l 2,6,7
 447 498 447 498 410 461 c 0,8,9
 374 425 374 425 374 374 c 1,10,-1
 249 374 l 1,11,12
 249 477 249 477 322 550 c 128,-1,13
 395 623 395 623 498 623 c 2,14,-1
 747 623 l 1,15,-1
 747 0 l 1,16,-1
 0 0 l 1,0,-1
EndSplineSet
EndChar

StartChar: v
Encoding: 118 118 87
Width: 847
VWidth: 747
Flags: W
LayerCount: 2
Fore
SplineSet
311 -124 m 1,0,-1
 311 249 l 1,1,-1
 249 249 l 2,2,3
 146 249 146 249 73 322 c 128,-1,4
 0 395 0 395 0 498 c 2,5,-1
 0 623 l 1,6,-1
 124 623 l 1,7,-1
 124 498 l 2,8,9
 124 447 124 447 161 410 c 0,10,11
 197 374 197 374 249 374 c 2,12,-1
 498 374 l 2,13,14
 549 374 549 374 586 410 c 0,15,16
 622 446 622 446 623 498 c 2,17,-1
 623 623 l 1,18,-1
 747 623 l 1,19,-1
 747 498 l 2,20,21
 747 395 747 395 674 322 c 128,-1,22
 601 249 601 249 498 249 c 2,23,-1
 436 249 l 1,24,-1
 436 -124 l 1,25,-1
 311 -124 l 1,0,-1
EndSplineSet
EndChar

StartChar: w
Encoding: 119 119 88
Width: 847
VWidth: 747
Flags: W
LayerCount: 2
Fore
SplineSet
0 0 m 1,0,-1
 0 623 l 1,1,-1
 747 623 l 1,2,-1
 747 0 l 1,3,-1
 0 0 l 1,0,-1
623 124 m 1,4,-1
 623 498 l 1,5,-1
 124 498 l 1,6,-1
 124 124 l 1,7,-1
 623 124 l 1,4,-1
EndSplineSet
EndChar

StartChar: x
Encoding: 120 120 89
Width: 847
VWidth: 747
Flags: W
LayerCount: 2
Fore
SplineSet
0 0 m 1,0,-1
 0 124 l 1,1,-1
 124 124 l 1,2,-1
 124 374 l 2,3,4
 124 477 124 477 197 550 c 128,-1,5
 270 623 270 623 374 623 c 2,6,-1
 623 623 l 1,7,-1
 623 124 l 1,8,-1
 747 124 l 1,9,-1
 747 0 l 1,10,-1
 0 0 l 1,0,-1
498 124 m 1,11,-1
 498 498 l 1,12,-1
 374 498 l 2,13,14
 322 498 322 498 286 461 c 0,15,16
 249 425 249 425 249 374 c 2,17,-1
 249 124 l 1,18,-1
 498 124 l 1,11,-1
EndSplineSet
EndChar

StartChar: y
Encoding: 121 121 90
Width: 847
VWidth: 747
Flags: W
LayerCount: 2
Fore
SplineSet
374 0 m 2,0,1
 271 0 271 0 197 73 c 0,2,3
 124 146 124 146 124 249 c 2,4,-1
 124 498 l 1,5,-1
 0 498 l 1,6,-1
 0 623 l 1,7,-1
 498 623 l 1,8,-1
 498 374 l 1,9,-1
 374 374 l 1,10,-1
 374 498 l 1,11,-1
 249 498 l 1,12,-1
 249 249 l 2,13,14
 249 198 249 198 286 161 c 0,15,16
 322 125 322 125 374 124 c 2,17,-1
 498 124 l 2,18,19
 549 124 549 124 586 161 c 0,20,21
 622 197 622 197 623 249 c 2,22,-1
 623 623 l 1,23,-1
 747 623 l 1,24,-1
 747 249 l 2,25,26
 747 146 747 146 674 73 c 128,-1,27
 601 0 601 0 498 0 c 2,28,-1
 374 0 l 2,0,1
EndSplineSet
EndChar

StartChar: z
Encoding: 122 122 91
Width: 847
VWidth: 747
Flags: W
LayerCount: 2
Fore
SplineSet
249 0 m 2,0,1
 146 0 146 0 73 73 c 128,-1,2
 0 146 0 146 0 249 c 1,3,-1
 124 249 l 1,4,5
 124 198 124 198 161 161 c 0,6,7
 197 125 197 125 249 124 c 2,8,-1
 623 124 l 1,9,-1
 623 249 l 1,10,-1
 249 249 l 1,11,-1
 249 374 l 1,12,-1
 623 374 l 1,13,-1
 623 623 l 1,14,-1
 498 623 l 1,15,-1
 498 747 l 1,16,-1
 747 747 l 1,17,-1
 747 0 l 1,18,-1
 249 0 l 2,0,1
EndSplineSet
EndChar

StartChar: braceleft
Encoding: 123 123 92
Width: 847
VWidth: 747
Flags: W
LayerCount: 2
Fore
SplineSet
374 0 m 1,0,-1
 374 249 l 1,1,-1
 249 249 l 1,2,-1
 249 374 l 1,3,-1
 374 374 l 1,4,-1
 374 498 l 1,5,-1
 249 498 l 1,6,-1
 249 623 l 1,7,-1
 374 623 l 1,8,-1
 374 872 l 1,9,-1
 498 872 l 1,10,-1
 498 0 l 1,11,-1
 374 0 l 1,0,-1
EndSplineSet
EndChar

StartChar: bar
Encoding: 124 124 93
Width: 847
VWidth: 747
Flags: W
LayerCount: 2
Fore
SplineSet
124 0 m 1,0,-1
 124 249 l 2,1,2
 124 352 124 352 197 425 c 0,3,4
 247 475 247 475 311 491 c 1,5,-1
 311 872 l 1,6,-1
 436 872 l 1,7,-1
 436 491 l 1,8,9
 500 475 500 475 550 425 c 0,10,11
 623 352 623 352 623 249 c 2,12,-1
 623 0 l 1,13,-1
 498 0 l 1,14,-1
 498 249 l 2,15,16
 498 300 498 300 461 337 c 0,17,18
 425 374 425 374 374 374 c 0,19,20
 322 374 322 374 286 337 c 0,21,22
 249 301 249 301 249 249 c 2,23,-1
 249 0 l 1,24,-1
 124 0 l 1,0,-1
EndSplineSet
EndChar

StartChar: braceright
Encoding: 125 125 94
Width: 847
VWidth: 747
Flags: W
LayerCount: 2
Fore
SplineSet
249 0 m 1,0,-1
 249 872 l 1,1,-1
 374 872 l 1,2,-1
 374 623 l 1,3,-1
 498 623 l 1,4,-1
 498 498 l 1,5,-1
 374 498 l 1,6,-1
 374 374 l 1,7,-1
 498 374 l 1,8,-1
 498 249 l 1,9,-1
 374 249 l 1,10,-1
 374 0 l 1,11,-1
 249 0 l 1,0,-1
EndSplineSet
EndChar

StartChar: asciitilde
Encoding: 126 126 95
Width: 847
VWidth: 747
Flags: W
LayerCount: 2
Fore
SplineSet
498 747 m 1,0,-1
 498 872 l 1,1,-1
 747 872 l 1,2,-1
 747 747 l 1,3,-1
 498 747 l 1,0,-1
0 747 m 1,4,-1
 0 872 l 1,5,-1
 249 872 l 1,6,-1
 249 747 l 1,7,-1
 0 747 l 1,4,-1
EndSplineSet
EndChar

StartChar: quoteleft
Encoding: 8216 8216 96
Width: 847
VWidth: 747
Flags: W
LayerCount: 2
Fore
SplineSet
374 498 m 1,0,-1
 374 747 l 1,1,-1
 249 747 l 1,2,-1
 249 872 l 1,3,-1
 498 872 l 1,4,-1
 498 498 l 1,5,-1
 374 498 l 1,0,-1
EndSplineSet
EndChar

StartChar: quoteright
Encoding: 8217 8217 97
Width: 847
VWidth: 747
Flags: W
LayerCount: 2
Fore
SplineSet
249 498 m 1,0,-1
 249 872 l 1,1,-1
 498 872 l 1,2,-1
 498 747 l 1,3,-1
 374 747 l 1,4,-1
 374 498 l 1,5,-1
 249 498 l 1,0,-1
EndSplineSet
EndChar

StartChar: quotedblleft
Encoding: 8220 8220 98
Width: 847
VWidth: 747
Flags: W
LayerCount: 2
Fore
SplineSet
436 498 m 2,0,1
 333 498 333 498 260 571 c 128,-1,2
 187 644 187 644 187 747 c 2,3,-1
 187 872 l 1,4,-1
 311 872 l 1,5,-1
 311 747 l 2,6,7
 311 695 311 695 348 659 c 0,8,9
 384 622 384 622 436 623 c 1,10,-1
 436 872 l 1,11,-1
 561 872 l 1,12,-1
 561 498 l 1,13,-1
 436 498 l 2,0,1
EndSplineSet
EndChar

StartChar: quotedblright
Encoding: 8221 8221 99
Width: 847
VWidth: 747
Flags: W
LayerCount: 2
Fore
SplineSet
187 498 m 1,0,-1
 187 872 l 1,1,-1
 311 872 l 1,2,-1
 311 623 l 1,3,4
 362 623 362 623 399 659 c 0,5,6
 435 695 435 695 436 747 c 2,7,-1
 436 872 l 1,8,-1
 561 872 l 1,9,-1
 561 747 l 2,10,11
 561 644 561 644 487 571 c 0,12,13
 414 498 414 498 311 498 c 2,14,-1
 187 498 l 1,0,-1
EndSplineSet
EndChar
